<svg width="4234" height="1620" viewBox="0 0 4234 1620" fill="none" xmlns="http://www.w3.org/2000/svg">
<path d="M1273 539C1274.7 526 1279 435.5 1279 435.5L1311 527.5L1303 650L1284 732.5L1256 793L1234 823.5L1022.5 839.5L965 788.5C965 788.5 1044.5 790 1059.5 787.5C1074.5 785 1098 777.5 1120 766.5C1141.72 755.638 1158.57 741.852 1169.58 732.842L1170 732.5C1181 723.5 1200.5 701 1216.5 681C1232.5 661 1238 651.5 1246.5 634C1255 616.5 1261.5 599 1265 583C1268.5 567 1271.3 552 1273 539Z" fill="#FC0507"/>
<path d="M1310 643C1312.5 621.5 1321.5 513 1321.5 513L1362.5 698L1354 807C1354 807 1323 839.5 1303 855.5C1283 871.5 1275.5 877.5 1256.5 886C1237.5 894.5 1211.5 886 1211.5 886C1211.5 886 1245 828.5 1251 817C1257 805.5 1281 751 1288.5 731.5C1296 712 1307.5 664.5 1310 643Z" fill="#BC0014" stroke="#BC0014" stroke-width="25" stroke-linecap="round"/>
<path d="M1023 838.5L1234.5 821L1197 894.5L1146.5 880.5L1023 838.5Z" fill="#A90014"/>
<path d="M1279 436.5L1265.5 339.5L1369.5 493.5L1467.5 600.5L1438.5 673L1410.5 728.5L1366 813C1366 813 1368.5 744 1363 702.5C1357.5 661 1360 663 1352 636C1344 609 1306.5 516.5 1299.5 500C1292.5 483.5 1279 436.5 1279 436.5Z" fill="#FD5702"/>
<path d="M904 515L929 486.5L787.5 550.5L858.5 645L881.5 581L904 515Z" fill="#2E111D" stroke="#2E111D"/>
<path d="M856.5 641C835.167 612.667 792.4 556 792 556L796.5 652L831.5 693L856.5 641Z" fill="#911C04" stroke="#911C04"/>
<path d="M920 729.5C940.833 753.833 983.1 802.9 985.5 804.5L825.5 703L887.5 563.5L883 621L890.5 669.5L920 729.5Z" fill="#C43D00" stroke="#C43D00"/>
<path d="M1117 442.5L1107 455H1031.5L949 468.5L858 495L817 512.5L777 529L802.5 475.5L825.5 438L868 376.5L949.5 389.5L1053.5 405.5L1131 419L1145 420.5L1143.5 423.5L1117 442.5Z" fill="#F2F5ED" stroke="#F2F5ED"/>
<path d="M1440 481.5C1440 482.5 1472.5 559 1473.5 562L1469.5 571.5L1405 507.5L1341.5 429.5C1320.83 400.333 1279.3 341.6 1278.5 340C1277.7 338.4 1270.33 316.167 1267 306L1276 272L1286 252.5L1310.5 210.5L1333 175L1358.5 146.5L1394 116.5L1437.5 92C1452.5 85.1667 1482.6 71.2 1483 70C1483.4 68.8 1539.17 52.1667 1567 44L1517 78.5L1475 116.5L1439.5 161L1409 210.5L1395 264.5L1393 312.5L1399.5 364L1417 416.5C1424.67 437.833 1440 480.7 1440 481.5Z" fill="#FFB600" stroke="#FFB600"/>
<path d="M1453 514.5C1458.33 526.167 1469.1 549.7 1469.5 550.5L1463 454V375C1463 374.2 1460.67 336 1459.5 317V261L1466 239.5L1482 190L1486.5 177.5L1507 139.5L1536.5 98.5L1564.5 70.5L1610.5 40.5L1568 43.5L1545.5 59C1536.33 65.5 1517.9 78.5 1517.5 78.5C1517 78.5 1499.5 96 1498.5 96C1497.5 96 1473.5 119 1473 119.5C1472.6 119.9 1455.5 140.667 1447 151C1444.33 154.5 1438.9 161.6 1438.5 162C1438.1 162.4 1427 180.833 1421.5 190C1417.33 196.5 1409 209.6 1409 210C1409 210.4 1407.33 216.5 1406.5 219.5L1400 245L1395 263C1395 265.333 1394.9 270.1 1394.5 270.5C1394.1 270.9 1393.67 289 1393.5 298L1393 311L1394.5 327L1397 345L1399.5 364L1400.5 367.5L1412.5 404L1423 434L1434 465.5L1445 494L1453 514.5Z" fill="#E14E00" stroke="#E14E00"/>
<path d="M1146.5 922.5C1169.17 921.167 1215.3 918.5 1218.5 918.5L951.5 804C908.667 771 822.5 704.5 820.5 702.5C818.5 700.5 791 651.667 777.5 627.5L767.5 675L787 755L843 886H874.5L932.5 897L998.5 906.5L1146.5 922.5Z" fill="#FEAA00" stroke="#FEAA00"/>
<path d="M1146 921.5C1147.5 922 1200 920 1204 920C1177 931 1122.7 953.2 1121.5 954C1120.3 954.8 1012 977 958 988L886.5 997L869 938.5L842.5 885H874.5C894 888.667 933.2 896 934 896C935 896 998 905 1001 905.5C1004 906 1144.5 921 1146 921.5Z" fill="#E83C00" stroke="#E83C00"/>
<path d="M773.5 534.5L776.5 529.177L774.5 639.177L767.5 675L787 755L815 819.5L837 872C841.5 881.333 850.5 900.1 850.5 900.5C850.5 900.9 862.833 925.667 869 938C871.333 945.833 876.3 962.1 877.5 964.5C878.7 966.9 884.667 989.167 887.5 1000C865.667 986.333 821.9 958.9 821.5 958.5C821.1 958.1 751.833 900.5 717 872L728 747.5L748.5 609.5L759 579.5L773.5 534.5Z" fill="#ED4200" stroke="#ED4200"/>
<path d="M830.5 432C842.5 414.5 866.6 379.3 867 378.5C849.667 380.5 814.5 384.6 812.5 385C810.5 385.4 762 408.167 738 419.5C722 443.5 689.6 492.2 688 495C686.4 497.8 647 591.167 627.5 637.5L678 822.5L718 872L727 756L749.5 609.5L773.5 534L803 475.5L812.5 460L830.5 432Z" fill="#FB5302" stroke="#FB5302"/>
<path d="M1049 1028.5C1006.67 1023.67 920.4 1018.5 918 1018.5L1246.5 912.5L1352 838.5C1377.5 802.333 1428.7 729.6 1429.5 728C1430.3 726.4 1463.83 653.667 1480.5 617.5L1466.5 748L1438 838.5L1393.5 914.5L1318 1001L1182.5 1022L1049 1028.5Z" fill="#FDD906" stroke="#FDD906"/>
<path d="M1466.5 748.5L1478 628.5L1492 646.5C1499.67 687.333 1515.3 769 1516.5 769C1517.7 769 1510 872 1506 923.5L1441.5 990L1318.5 1001L1335 980L1394.5 912.5L1437.5 838L1466.5 748.5Z" fill="#F79400" stroke="#F79400"/>
<path d="M1318.5 999.5C1361.67 995 1449.5 986 1455.5 986C1415.33 1015.17 1334.5 1073.6 1332.5 1074C1330.5 1074.4 1305.33 1107.83 1293 1124.5C1273.83 1124.83 1234.9 1125.5 1232.5 1125.5C1229.5 1125.5 1098 1103 1098.5 1101.5C1098.9 1100.3 1002.33 1063 954 1044.5L924 1019.5L1049 1027.5L1183 1021L1318.5 999.5Z" fill="#E75203" stroke="#E75203"/>
<path d="M1685.06 747.461C1685.25 747.158 1685.4 747 1685.5 747C1685.35 747.154 1685.2 747.307 1685.06 747.461C1681.14 753.469 1658.08 816.637 1646.5 849L1596.5 951L1568 1020.5L1425.5 1067.5L1290.5 1126C1341.83 1082.67 1456.5 985 1458.5 983C1460.5 981.004 1610.07 825.449 1685.06 747.461Z" fill="#FF0A07"/>
<path d="M1685.5 747C1683.5 747 1658.67 815 1646.5 849L1596.5 951L1568 1020.5L1425.5 1067.5L1290.5 1126C1341.83 1082.67 1456.5 985 1458.5 983C1460.5 981 1610.67 824.833 1685.5 747Z" stroke="#FF0A07"/>
<path d="M1515.5 1059L1568.5 1020.5C1555.17 1024.83 1528 1033 1526 1033C1523.5 1033 1427.5 1066 1426.5 1066.5C1425.7 1066.9 1399.5 1078.33 1386.5 1084C1362 1094.67 1312.8 1116.2 1312 1117C1311.2 1117.8 1306.33 1120.67 1304 1122L1316 1139.5H1434.5L1469.5 1103.5L1515.5 1059Z" fill="#6F071D" stroke="#6F071D"/>
<path d="M810 1046.5C785.167 1015.33 735.1 952.6 733.5 951L702.5 916.5L695.5 857L857.5 985C914.667 1023.83 1028.6 1101.6 1027 1102C1025.4 1102.4 1160.67 1174.83 1228.5 1211L962 1213C947 1197 916.8 1164.6 916 1163C915.2 1161.4 845 1084.67 810 1046.5Z" fill="#FF000F" stroke="#FF000F"/>
<path d="M1249.5 1245L1255.5 1242L1200 1210.5L961.5 1213C969.667 1233.33 986 1273.2 986 1274C986 1274.8 1005.67 1279 1015.5 1281L1153.5 1258L1249.5 1245Z" fill="#E9020C" stroke="#E9020C"/>
<path d="M1357.5 1192L1402.5 1173.5L1354 1151.5C1314.33 1148.33 1234.8 1141.9 1234 1141.5C1233 1141 1087 1116 1084.5 1115.5C1082.5 1115.1 1047.67 1112.33 1030.5 1111L1125.5 1165.5L1178 1200.5L1254.5 1242.5L1295.5 1221.5L1357.5 1192Z" fill="#8D001D" stroke="#8D001D"/>
<path d="M922 1266L987 1274.5L962.5 1212.5L916.5 1162.5L836 1073.5L807.5 1042L768.5 994L787.5 1043L871 1188.5L922 1266Z" fill="#BC0110" stroke="#BC0110"/>
<path d="M679 1178.5L887.5 1253.5L727.5 972.5L710.5 1094L679 1178.5Z" fill="#830119" stroke="#830119"/>
<path d="M708.5 1099.5L679 1178.5L663 1055.5L645.5 975.5L631 845L633.5 727.5L687.5 907C701.333 930.833 728.7 978.6 727.5 979C726.3 979.4 714.333 1059.5 708.5 1099.5Z" fill="#950219" stroke="#950219"/>
<path d="M638 1137L678 1177.5L662 1050L645 969L631.5 846.5L634 692L615.5 677L559.5 877L518 1025L574.5 1080L638 1137Z" fill="#FF3A00" stroke="#FF3A00"/>
<path d="M564 608.5L641 554.5L589 719L546.5 910L522.5 980.5L508 1003L502.5 999.5L485 952.5L487 822.5L564 608.5Z" fill="#66001C" stroke="#66001C"/>
<path d="M486.5 827L383 674L558.5 521L705 438.5C693.333 464 669.9 515.6 669.5 518C669 521 598 599 595.5 600C593.5 600.8 562.667 655.667 547.5 683L486.5 827Z" fill="#FC0106" stroke="#FC0106"/>
<path d="M472 917L485 953L486.5 827L398 697.5L411.5 754L451.5 865L472 917Z" fill="#FF2504" stroke="#FF2504"/>
<path d="M1565.5 796.5C1564.3 797.3 1533 870.167 1517.5 906.5L1583.5 848L1663 756V724.5L1680.5 690.5L1695.5 655L1702.5 609.5L1705 560.5L1695.5 527.5L1678 496C1668 533.667 1648 609.5 1648 611.5C1648 613.5 1613.67 679.333 1596.5 712C1586.67 739.833 1566.7 795.7 1565.5 796.5Z" fill="#8B0119" stroke="#8B0119"/>
<path d="M1631.5 650C1618.33 674.5 1592.3 723.9 1591.5 725.5L1604.5 659L1599.5 575.5L1591 537L1573 476.5L1545.5 379L1540 312.5C1541.17 282.5 1543.5 221.9 1543.5 219.5C1543.5 217.1 1573.5 177.167 1588.5 157.5L1563.5 208.5C1562.83 224 1561.4 255.6 1561 258C1560.6 260.4 1569.17 299.333 1573.5 318.5L1615 399L1678 495.5C1668.67 533.833 1650 611 1650 613C1650 615 1637.67 638.5 1631.5 650Z" fill="#FF1D04" stroke="#FF1D04"/>
<path d="M1543 850C1535.5 866.667 1520.5 900.6 1520.5 903C1517.17 833.667 1510.2 694.6 1509 693C1507.8 691.4 1487.17 590 1477 539.5L1481 382.5L1570 465C1580 497.167 1600 562.1 1600 564.5C1600 566.9 1604.33 630.167 1606.5 661.5L1591.5 726.5L1570 788.5L1543 850Z" fill="#F60008" stroke="#F60008"/>
<path d="M1482 384L1569.5 463.5L1563.5 441.5L1546 380L1544.5 366L1540.5 311.5L1543 220L1524.5 248L1501 304L1485 338L1482 384Z" fill="#FF4100" stroke="#FF4100"/>
<path d="M400 606.5L390.5 638.5L647 463L714 435.5L756.5 386.5L656.5 423.5C639.833 431.5 606.1 447.6 604.5 448C602.9 448.4 540.167 479.833 509 495.5C496.833 505.333 472.2 525.2 471 526C469.8 526.8 423.167 580 400 606.5Z" fill="#B80101" stroke="#B80101"/>
<path d="M406.5 558L400 606.5L418 586.5L454.5 544.5L472 525.5L509.5 496L518 491L603.5 448.5L656.5 423.5L686 412L729.5 396L754 387L761.5 383L446 401.5L438.5 405C436.5 421.5 433.5 454.2 433.5 455C433.5 455.8 425.167 487.667 421 503.5L406.5 558Z" fill="#FF4200" stroke="#FF4200"/>
<path d="M490.5 360.5C481.678 368.656 462.38 387.451 461.932 387.5L721.5 372.5L841 369L829 352.5L671.5 314L586.5 295.5L555 314L513.5 332L490.5 360.5Z" fill="#EB000F"/>
<path d="M461.93 387.5C462.33 387.5 481.667 368.667 490.5 360.5L513.5 332L555 314L586.5 295.5L671.5 314L829 352.5L841 369L721.5 372.5L461.93 387.5Z" stroke="#EB000F"/>
<path d="M600.5 189.5L589.5 209.5L634.5 196L700.5 195L706 188.5L709 1.5L636 134.5L600.5 189.5Z" fill="#FD8300" stroke="#FD8300"/>
<path d="M589.5 209.5C570.667 241.833 534.4 302.7 534 303.5L722 194.5L634 196.5L589.5 209.5Z" fill="#F95B01" stroke="#F95B01"/>
<path d="M753.5 147C781.167 156 836.7 174 837.5 174L830.5 72L833.5 14C818.333 41.8333 787.9 97.7 787.5 98.5C787.1 99.3 764.667 131.167 753.5 147Z" fill="#A8000F" stroke="#A8000F"/>
<path d="M769.5 263C793 264.167 840.3 266.5 841.5 266.5C817.833 234 770.3 169.1 769.5 169.5C768.5 170 689 217.5 688 217.5C687 217.5 607 274 604.5 275.5C602.5 276.7 619.333 290.333 628 297L769.5 263Z" fill="#E10010" stroke="#E10010"/>
<path d="M984 376C1032.67 383.833 1130.4 399.5 1132 399.5L1147.5 363.5L1050 327L997.5 308.5C988.5 300.667 969 286 969 286C969 286 897.5 224.5 862.5 193.5L810.5 172C810.5 172 771 166.5 770 166.5C769.2 166.5 808 232.5 827.5 265.5L875.5 278.5L919 307.5L984 376Z" fill="#FF4800" stroke="#FF4800"/>
<path d="M876.5 368.5L964 380L933 323L919.5 307.5L876.5 277.5L827 265L770.5 262.5L628 294L801.5 332L876.5 368.5Z" fill="#DD0011" stroke="#DD0011"/>
<path d="M873 312C871.725 310.725 924.5 315.5 926.5 315.5L955.5 376C927.167 356 875 314 873 312Z" fill="#810317" stroke="#810317"/>
<path d="M776.5 529L790 522L794.5 568L801.5 641L818 675.5L879 727.5L970.5 788.5L1028 823.5L1081.5 845L1148 866L1213 890L1238.5 895L1257.5 885L1288 868L1324.5 841L1357 805L1382 773.5L1429.5 689L1468.5 596L1487.5 609L1460.5 675.5L1434 733.5L1394 796.5L1347.5 850.5L1285 898.5L1242 922.5L1182.5 911.5L1045 861L946 812L900 777.5L859 746.5L818 712.5L786 675.5L774.5 644V596L776.5 529Z" fill="black" stroke="black"/>
<path d="M1265.5 339.5L1267 306L1280 334.5L1319 389L1351 432.5L1389 478L1417.5 514.5L1447.5 546.5L1467 561L1480.5 581.5L1467 601L1404.5 533.5C1393.5 521.167 1371.2 496.2 1370 495C1368.8 493.8 1353.83 471.5 1346.5 460.5L1265.5 339.5Z" fill="black" stroke="black"/>
<path d="M921.5 493.5L786.5 552.5L788.5 524.5L790 522L833.5 499L895 479L966 460L1040.5 451L1112 449L1094 472.5L1007.5 482L921.5 493.5Z" fill="black" stroke="black"/>
<path d="M1459 260L1483.5 186.5L1476.5 225.5L1475 258L1478.5 307L1485.5 336.5V371L1483.5 423V498L1491.5 571.5L1468 577L1458 498V440L1460.5 389.5L1459 356.5L1458 303.5L1459 260Z" fill="black" stroke="black"/>
<path d="M1479.5 633L1460 569.5L1490.5 560.5L1505 630.5L1517 688L1523 760V848.5L1521.5 899C1527.67 894.333 1540.1 884.8 1540.5 884C1540.9 883.2 1568.33 855.667 1582 842L1619 799L1646 763.5L1662 743L1696.5 729.5L1675.5 766.5L1639.5 811.5C1630.5 821.833 1612 842.7 1610 843.5C1608 844.3 1573.83 882.167 1557 901L1516.5 941.5L1504.5 945.5L1492.5 941.5L1496.5 886.5L1499 819L1496.5 753L1490.5 685.5L1479.5 633Z" fill="black" stroke="black"/>
<path d="M1514.5 944L1519 938.5L1498 917L1476 944L1426.5 986L1371 1032.5L1304 1085L1281.5 1112L1284 1139H1302L1316.5 1114L1350 1085L1390.5 1047L1430 1016.5L1494.5 963L1514.5 944Z" fill="black" stroke="black"/>
<path d="M1402.5 1174L1440 1134.5H1338L1313 1129.5L1315 1112.5H1298H1208L1157 1104.5L1096.5 1090L1035 1067.5L951 1028L898 1008.5L880.5 1013L968.5 1066L1031.5 1112.5L1085.5 1117.5L1157 1129.5L1247 1153.5L1309 1156.5L1345.5 1164L1402.5 1174Z" fill="black" stroke="black"/>
<path d="M926 1023.5L901.5 1016.5L880.5 994.5L960.5 981.5L1009.5 971L1096.5 951.5L1142 934L1189 920L1215 912L1242.5 922L1217.5 935L1168.5 955L1094.5 979L1009.5 1000.5L930.5 1015L926 1023.5Z" fill="black" stroke="black"/>
<path d="M875 1010.5C877.333 1011.5 882.1 1013.6 882.5 1014H905.5L892.5 996L856 968L821 943.5L782.5 916L741 885C731.5 879 712.4 866.9 712 866.5C711.6 866.1 701.167 861.667 696 859.5L729 898L760 926L793.5 952.5L825.5 973.5L860 999L875 1010.5Z" fill="black" stroke="black"/>
<path d="M712 859L736 883L706.5 863L704 884.5L725 921L760.5 976.5L789 1031.5L834 1115.5L874 1178.5L903 1233.5L926 1266.5L908 1267.5L886 1253L845.5 1183L805.5 1119L776.5 1070L747.5 1018.5L693.5 926.5L676 884.5L660 839L644.5 783.5L630.5 729.5L615 667.5L598.5 658.5L630.5 613.5L646.5 697.5L666 762.5L676 797.5L684.5 821L699.5 841.5L712 859Z" fill="black" stroke="black"/>
<path d="M612.5 706.5C616.667 699.833 625 686.3 625 685.5L634.5 640L631.5 565.5L619.5 599L597.5 653L588 706.5L563.5 797.5L533 902.5L502.5 999.5L517.5 1024.5L528.5 999.5L549 932L569 866L584.5 808L597.5 753L612.5 706.5Z" fill="black" stroke="black"/>
<path d="M659.5 569C651.167 594.167 634.3 644.7 633.5 645.5L628 619.5L631 567L638.5 548L661 504.5C672.167 487 694.7 451.9 695.5 451.5C696.5 451 676 459 675 459C674 459 691 433 690 433.5C689.2 433.9 730 403.667 750.5 388.5L843.5 371.5L884 377.5C866.5 381.333 831.2 389 830 389C828.8 389 806.167 395.333 795 398.5L748.5 420.5L718 453.5C706.5 472.833 683.3 511.6 682.5 512C681.7 512.4 666.833 550.167 659.5 569Z" fill="black" stroke="black"/>
<path d="M652.5 478C661.667 470.833 680.1 456.4 680.5 456L700 428.5C687.5 433.5 662.2 443.7 661 444.5C659.5 445.5 636.5 458.5 634.5 460.5C632.9 462.1 593.167 488.167 573.5 501C550.167 517.333 503.3 550 502.5 550C501.7 550 464.167 578 445.5 592L389.5 637L382.5 674L420 645L466 610L520.5 570.5L561.5 541L608 509.5L652.5 478Z" fill="black" stroke="black"/>
<path d="M582 400C640 396 757.5 387.9 763.5 387.5L834.5 380.5L867 364.5H763.5L638.5 374.5L466.5 383.5L439 404.5L582 400Z" fill="black" stroke="black"/>
<path d="M1143.5 423.5L1176 368L1145 362.5C1140.83 365.667 1132.3 372.5 1131.5 374.5C1130.5 377 1125.5 391 1124.5 392C1123.5 393 1104 390.5 1101.5 391C1099 391.5 1025.5 378.5 1021.5 378.5C1017.5 378.5 949.5 372 948.5 372C947.5 372 901.5 364 899.5 364C897.9 364 865.167 375 849 380.5L948.5 394.5L1036 406C1057.5 410.5 1100.7 419.6 1101.5 420C1102.3 420.4 1129.83 422.5 1143.5 423.5Z" fill="black" stroke="black"/>
<path d="M978 364C979 364.5 1022.5 384 1027.5 386.5L954 382L926.5 315.5C943.333 331.5 977.2 363.6 978 364Z" fill="black" stroke="black"/>
<path d="M806.5 351L844.5 376.5L922 374.5L861 343L823 330L735 312.5C702 305.5 635.2 291.4 632 291C628.8 290.6 605.333 289.167 594 288.5L619.5 312.5C641.5 317.167 686 326.6 688 327C690.5 327.5 738 337.5 741.5 339C744.3 340.2 786 347.5 806.5 351Z" fill="black" stroke="black"/>
<path d="M577 304L628 308.5L641 297.5L622 282.5L626 270L663.5 244.5L707 218.5L720 183L639 232.5L595 264L534.5 302.5L509.5 336.5L546 323L577 304Z" fill="black" stroke="black"/>
<path d="M699 104C702.167 70.1667 708.6 2.3 709 1.5L739 72L760 136.5L777 162.5L765.5 172.5L726.5 205C717.5 211 699.4 223 699 223C698.6 223 698.833 143.667 699 104Z" fill="black" stroke="black"/>
<path d="M781.5 169.5C771.667 172.833 751.7 179.7 750.5 180.5L758.5 148.5L796.5 156.5C807.768 159.648 830.24 166.026 830.498 166.493C830.411 165.812 827.811 134.059 826.5 118V59L833.5 10.5C839 37.6667 850 92.1 850 92.5C850 92.9 856.667 126.667 860 143.5L864.5 194.5C848.5 191 816.4 184 816 184C815.6 184 792.833 174.333 781.5 169.5Z" fill="black"/>
<path d="M750.5 180.5C751.7 179.7 771.667 172.833 781.5 169.5C792.833 174.333 815.6 184 816 184C816.4 184 848.5 191 864.5 194.5L860 143.5C856.667 126.667 850 92.9 850 92.5C850 92.1 839 37.6667 833.5 10.5L826.5 59V118C827.833 134.333 830.5 166.9 830.5 166.5C830.5 166.1 807.833 159.667 796.5 156.5L758.5 148.5L750.5 180.5Z" stroke="black"/>
<path d="M168.4 1371H229.2L120 1492.6L233.2 1619.8H171.6L60.4 1492.6L168.4 1371ZM0 1371H52.4V1619.8H0V1371ZM280.54 1371H335.74V1619.8H280.54V1371ZM581.76 1371H630.96V1619.8H582.16L459.36 1425.8V1619.8H410.16V1371H460.56L581.76 1564.2V1371ZM908.34 1402.6V1588.2C908.34 1609.27 897.81 1619.8 876.74 1619.8H730.34C709.28 1619.8 698.74 1609.27 698.74 1588.2V1402.6C698.74 1381.53 709.28 1371 730.34 1371H876.74C897.81 1371 908.34 1381.53 908.34 1402.6ZM855.14 1583.8V1407C855.14 1401.67 854.34 1398.33 852.74 1397C851.41 1395.4 848.08 1394.6 842.74 1394.6H764.74C759.68 1394.6 756.34 1395.4 754.74 1397C753.14 1398.33 752.34 1401.67 752.34 1407V1583.8C752.34 1589.13 753.14 1592.6 754.74 1594.2C756.34 1595.53 759.68 1596.2 764.74 1596.2H842.74C848.08 1596.2 851.41 1595.53 852.74 1594.2C854.34 1592.6 855.14 1589.13 855.14 1583.8ZM1088.75 1371H1143.95V1619.8H1088.75V1371ZM1365.56 1583.8V1518.6C1365.56 1513.53 1364.76 1510.2 1363.16 1508.6C1361.83 1507 1358.49 1506.2 1353.16 1506.2H1241.96C1220.89 1506.2 1210.36 1495.67 1210.36 1474.6V1402.6C1210.36 1381.53 1220.89 1371 1241.96 1371H1386.36C1407.43 1371 1417.96 1381.53 1417.96 1402.6V1445.4H1363.96V1407C1363.96 1401.67 1363.16 1398.33 1361.56 1397C1360.23 1395.4 1356.89 1394.6 1351.56 1394.6H1276.76C1271.69 1394.6 1268.36 1395.4 1266.76 1397C1265.16 1398.33 1264.36 1401.67 1264.36 1407V1470.2C1264.36 1475.53 1265.16 1479 1266.76 1480.6C1268.36 1481.93 1271.69 1482.6 1276.76 1482.6H1387.56C1408.63 1482.6 1419.16 1493.13 1419.16 1514.2V1588.2C1419.16 1609.27 1408.63 1619.8 1387.56 1619.8H1243.16C1222.09 1619.8 1211.56 1609.27 1211.56 1588.2V1545.4H1265.16V1583.8C1265.16 1589.13 1265.96 1592.6 1267.56 1594.2C1269.16 1595.53 1272.49 1596.2 1277.56 1596.2H1353.16C1358.49 1596.2 1361.83 1595.53 1363.16 1594.2C1364.76 1592.6 1365.56 1589.13 1365.56 1583.8ZM1651.21 1371H1712.01L1602.81 1492.6L1716.01 1619.8H1654.41L1543.21 1492.6L1651.21 1371ZM1482.81 1371H1535.21V1619.8H1482.81V1371ZM1813.76 1394.6V1507H1910.56C1915.62 1507 1918.96 1506.2 1920.56 1504.6C1922.16 1503 1922.96 1499.67 1922.96 1494.6V1407C1922.96 1401.67 1922.16 1398.33 1920.56 1397C1918.96 1395.4 1915.62 1394.6 1910.56 1394.6H1813.76ZM1813.76 1530.6V1619.8H1760.16V1371H1944.56C1965.62 1371 1976.16 1381.53 1976.16 1402.6V1499C1976.16 1520.07 1965.62 1530.6 1944.56 1530.6H1923.36L1979.76 1619.8H1924.16L1869.76 1530.6H1813.76ZM2093.83 1547H2197.43L2145.43 1404.6L2093.83 1547ZM2224.23 1619.8L2206.23 1570.6H2085.43L2067.43 1619.8H2015.03L2110.63 1371H2181.03L2277.03 1619.8H2224.23Z" fill="black"/>
</svg>
