<svg width="3853" height="1282" viewBox="0 0 3853 1282" fill="none" xmlns="http://www.w3.org/2000/svg">
<path d="M892 539C893.696 526 898 435.5 898 435.5L930 527.5L922 650L903 732.5L875 793L853 823.5L641.5 839.5L584 788.5C584 788.5 663.5 790 678.5 787.5C693.5 785 717 777.5 739 766.5C760.723 755.638 777.572 741.852 788.582 732.842L789 732.5C800 723.5 819.5 701 835.5 681C851.5 661 857 651.5 865.5 634C874 616.5 880.5 599 884 583C887.5 567 890.304 552 892 539Z" fill="#FC0507"/>
<path d="M929 643C931.5 621.5 940.5 513 940.5 513L981.5 698L973 807C973 807 942 839.5 922 855.5C902 871.5 894.5 877.5 875.5 886C856.5 894.5 830.5 886 830.5 886C830.5 886 864 828.5 870 817C876 805.5 900 751 907.5 731.5C915 712 926.5 664.5 929 643Z" fill="#BC0014" stroke="#BC0014" stroke-width="25" stroke-linecap="round"/>
<path d="M642 838.5L853.5 821L816 894.5L765.5 880.5L642 838.5Z" fill="#A90014"/>
<path d="M898 436.5L884.5 339.5L988.5 493.5L1086.5 600.5L1057.5 673L1029.5 728.5L985 813C985 813 987.5 744 982 702.5C976.5 661 979 663 971 636C963 609 925.5 516.5 918.5 500C911.5 483.5 898 436.5 898 436.5Z" fill="#FD5702"/>
<path d="M523 515L548 486.5L406.5 550.5L477.5 645L500.5 581L523 515Z" fill="#2E111D" stroke="#2E111D"/>
<path d="M475.5 641C454.167 612.667 411.4 556 411 556L415.5 652L450.5 693L475.5 641Z" fill="#911C04" stroke="#911C04"/>
<path d="M539 729.5C559.833 753.833 602.1 802.9 604.5 804.5L444.5 703L506.5 563.5L502 621L509.5 669.5L539 729.5Z" fill="#C43D00" stroke="#C43D00"/>
<path d="M736 442.5L726 455H650.5L568 468.5L477 495L436 512.5L396 529L421.5 475.5L444.5 438L487 376.5L568.5 389.5L672.5 405.5L750 419L764 420.5L762.5 423.5L736 442.5Z" fill="#F2F5ED" stroke="#F2F5ED"/>
<path d="M1059 481.5C1059 482.5 1091.5 559 1092.5 562L1088.5 571.5L1024 507.5L960.5 429.5C939.833 400.333 898.3 341.6 897.5 340C896.7 338.4 889.333 316.167 886 306L895 272L905 252.5L929.5 210.5L952 175L977.5 146.5L1013 116.5L1056.5 92C1071.5 85.1667 1101.6 71.2 1102 70C1102.4 68.8 1158.17 52.1667 1186 44L1136 78.5L1094 116.5L1058.5 161L1028 210.5L1014 264.5L1012 312.5L1018.5 364L1036 416.5C1043.67 437.833 1059 480.7 1059 481.5Z" fill="#FFB600" stroke="#FFB600"/>
<path d="M1072 514.5C1077.33 526.167 1088.1 549.7 1088.5 550.5L1082 454V375C1082 374.2 1079.67 336 1078.5 317V261L1085 239.5L1101 190L1105.5 177.5L1126 139.5L1155.5 98.5L1183.5 70.5L1229.5 40.5L1187 43.5L1164.5 59C1155.33 65.5 1136.9 78.5 1136.5 78.5C1136 78.5 1118.5 96 1117.5 96C1116.5 96 1092.5 119 1092 119.5C1091.6 119.9 1074.5 140.667 1066 151C1063.33 154.5 1057.9 161.6 1057.5 162C1057.1 162.4 1046 180.833 1040.5 190C1036.33 196.5 1028 209.6 1028 210C1028 210.4 1026.33 216.5 1025.5 219.5L1019 245L1014 263C1014 265.333 1013.9 270.1 1013.5 270.5C1013.1 270.9 1012.67 289 1012.5 298L1012 311L1013.5 327L1016 345L1018.5 364L1019.5 367.5L1031.5 404L1042 434L1053 465.5L1064 494L1072 514.5Z" fill="#E14E00" stroke="#E14E00"/>
<path d="M765.5 922.5C788.167 921.167 834.3 918.5 837.5 918.5L570.5 804C527.667 771 441.5 704.5 439.5 702.5C437.5 700.5 410 651.667 396.5 627.5L386.5 675L406 755L462 886H493.5L551.5 897L617.5 906.5L765.5 922.5Z" fill="#FEAA00" stroke="#FEAA00"/>
<path d="M765 921.5C766.5 922 819 920 823 920C796 931 741.7 953.2 740.5 954C739.3 954.8 631 977 577 988L505.5 997L488 938.5L461.5 885H493.5C513 888.667 552.2 896 553 896C554 896 617 905 620 905.5C623 906 763.5 921 765 921.5Z" fill="#E83C00" stroke="#E83C00"/>
<path d="M392.5 534.5L395.5 529.177L393.5 639.177L386.5 675L406 755L434 819.5L456 872C460.5 881.333 469.5 900.1 469.5 900.5C469.5 900.9 481.833 925.667 488 938C490.333 945.833 495.3 962.1 496.5 964.5C497.7 966.9 503.667 989.167 506.5 1000C484.667 986.333 440.9 958.9 440.5 958.5C440.1 958.1 370.833 900.5 336 872L347 747.5L367.5 609.5L378 579.5L392.5 534.5Z" fill="#ED4200" stroke="#ED4200"/>
<path d="M449.5 432C461.5 414.5 485.6 379.3 486 378.5C468.667 380.5 433.5 384.6 431.5 385C429.5 385.4 381 408.167 357 419.5C341 443.5 308.6 492.2 307 495C305.4 497.8 266 591.167 246.5 637.5L297 822.5L337 872L346 756L368.5 609.5L392.5 534L422 475.5L431.5 460L449.5 432Z" fill="#FB5302" stroke="#FB5302"/>
<path d="M668 1028.5C625.667 1023.67 539.4 1018.5 537 1018.5L865.5 912.5L971 838.5C996.5 802.333 1047.7 729.6 1048.5 728C1049.3 726.4 1082.83 653.667 1099.5 617.5L1085.5 748L1057 838.5L1012.5 914.5L937 1001L801.5 1022L668 1028.5Z" fill="#FDD906" stroke="#FDD906"/>
<path d="M1085.5 748.5L1097 628.5L1111 646.5C1118.67 687.333 1134.3 769 1135.5 769C1136.7 769 1129 872 1125 923.5L1060.5 990L937.5 1001L954 980L1013.5 912.5L1056.5 838L1085.5 748.5Z" fill="#F79400" stroke="#F79400"/>
<path d="M937.5 999.5C980.667 995 1068.5 986 1074.5 986C1034.33 1015.17 953.5 1073.6 951.5 1074C949.5 1074.4 924.333 1107.83 912 1124.5C892.833 1124.83 853.9 1125.5 851.5 1125.5C848.5 1125.5 717 1103 717.5 1101.5C717.9 1100.3 621.333 1063 573 1044.5L543 1019.5L668 1027.5L802 1021L937.5 999.5Z" fill="#E75203" stroke="#E75203"/>
<path d="M1304.06 747.461C1304.25 747.158 1304.4 747 1304.5 747C1304.35 747.154 1304.2 747.307 1304.06 747.461C1300.14 753.469 1277.08 816.637 1265.5 849L1215.5 951L1187 1020.5L1044.5 1067.5L909.5 1126C960.833 1082.67 1075.5 985 1077.5 983C1079.5 981.004 1229.07 825.449 1304.06 747.461Z" fill="#FF0A07"/>
<path d="M1304.5 747C1302.5 747 1277.67 815 1265.5 849L1215.5 951L1187 1020.5L1044.5 1067.5L909.5 1126C960.833 1082.67 1075.5 985 1077.5 983C1079.5 981 1229.67 824.833 1304.5 747Z" stroke="#FF0A07"/>
<path d="M1134.5 1059L1187.5 1020.5C1174.17 1024.83 1147 1033 1145 1033C1142.5 1033 1046.5 1066 1045.5 1066.5C1044.7 1066.9 1018.5 1078.33 1005.5 1084C981 1094.67 931.8 1116.2 931 1117C930.2 1117.8 925.333 1120.67 923 1122L935 1139.5H1053.5L1088.5 1103.5L1134.5 1059Z" fill="#6F071D" stroke="#6F071D"/>
<path d="M429 1046.5C404.167 1015.33 354.1 952.6 352.5 951L321.5 916.5L314.5 857L476.5 985C533.667 1023.83 647.6 1101.6 646 1102C644.4 1102.4 779.667 1174.83 847.5 1211L581 1213C566 1197 535.8 1164.6 535 1163C534.2 1161.4 464 1084.67 429 1046.5Z" fill="#FF000F" stroke="#FF000F"/>
<path d="M868.5 1245L874.5 1242L819 1210.5L580.5 1213C588.667 1233.33 605 1273.2 605 1274C605 1274.8 624.667 1279 634.5 1281L772.5 1258L868.5 1245Z" fill="#E9020C" stroke="#E9020C"/>
<path d="M976.5 1192L1021.5 1173.5L973 1151.5C933.333 1148.33 853.8 1141.9 853 1141.5C852 1141 706 1116 703.5 1115.5C701.5 1115.1 666.667 1112.33 649.5 1111L744.5 1165.5L797 1200.5L873.5 1242.5L914.5 1221.5L976.5 1192Z" fill="#8D001D" stroke="#8D001D"/>
<path d="M541 1266L606 1274.5L581.5 1212.5L535.5 1162.5L455 1073.5L426.5 1042L387.5 994L406.5 1043L490 1188.5L541 1266Z" fill="#BC0110" stroke="#BC0110"/>
<path d="M298 1178.5L506.5 1253.5L346.5 972.5L329.5 1094L298 1178.5Z" fill="#830119" stroke="#830119"/>
<path d="M327.5 1099.5L298 1178.5L282 1055.5L264.5 975.5L250 845L252.5 727.5L306.5 907C320.333 930.833 347.7 978.6 346.5 979C345.3 979.4 333.333 1059.5 327.5 1099.5Z" fill="#950219" stroke="#950219"/>
<path d="M257 1137L297 1177.5L281 1050L264 969L250.5 846.5L253 692L234.5 677L178.5 877L137 1025L193.5 1080L257 1137Z" fill="#FF3A00" stroke="#FF3A00"/>
<path d="M183 608.5L260 554.5L208 719L165.5 910L141.5 980.5L127 1003L121.5 999.5L104 952.5L106 822.5L183 608.5Z" fill="#66001C" stroke="#66001C"/>
<path d="M105.5 827L2 674L177.5 521L324 438.5C312.333 464 288.9 515.6 288.5 518C288 521 217 599 214.5 600C212.5 600.8 181.667 655.667 166.5 683L105.5 827Z" fill="#FC0106" stroke="#FC0106"/>
<path d="M91 917L104 953L105.5 827L17 697.5L30.5 754L70.5 865L91 917Z" fill="#FF2504" stroke="#FF2504"/>
<path d="M1184.5 796.5C1183.3 797.3 1152 870.167 1136.5 906.5L1202.5 848L1282 756V724.5L1299.5 690.5L1314.5 655L1321.5 609.5L1324 560.5L1314.5 527.5L1297 496C1287 533.667 1267 609.5 1267 611.5C1267 613.5 1232.67 679.333 1215.5 712C1205.67 739.833 1185.7 795.7 1184.5 796.5Z" fill="#8B0119" stroke="#8B0119"/>
<path d="M1250.5 650C1237.33 674.5 1211.3 723.9 1210.5 725.5L1223.5 659L1218.5 575.5L1210 537L1192 476.5L1164.5 379L1159 312.5C1160.17 282.5 1162.5 221.9 1162.5 219.5C1162.5 217.1 1192.5 177.167 1207.5 157.5L1182.5 208.5C1181.83 224 1180.4 255.6 1180 258C1179.6 260.4 1188.17 299.333 1192.5 318.5L1234 399L1297 495.5C1287.67 533.833 1269 611 1269 613C1269 615 1256.67 638.5 1250.5 650Z" fill="#FF1D04" stroke="#FF1D04"/>
<path d="M1162 850C1154.5 866.667 1139.5 900.6 1139.5 903C1136.17 833.667 1129.2 694.6 1128 693C1126.8 691.4 1106.17 590 1096 539.5L1100 382.5L1189 465C1199 497.167 1219 562.1 1219 564.5C1219 566.9 1223.33 630.167 1225.5 661.5L1210.5 726.5L1189 788.5L1162 850Z" fill="#F60008" stroke="#F60008"/>
<path d="M1101 384L1188.5 463.5L1182.5 441.5L1165 380L1163.5 366L1159.5 311.5L1162 220L1143.5 248L1120 304L1104 338L1101 384Z" fill="#FF4100" stroke="#FF4100"/>
<path d="M19 606.5L9.5 638.5L266 463L333 435.5L375.5 386.5L275.5 423.5C258.833 431.5 225.1 447.6 223.5 448C221.9 448.4 159.167 479.833 128 495.5C115.833 505.333 91.2 525.2 90 526C88.8 526.8 42.1667 580 19 606.5Z" fill="#B80101" stroke="#B80101"/>
<path d="M25.5 558L19 606.5L37 586.5L73.5 544.5L91 525.5L128.5 496L137 491L222.5 448.5L275.5 423.5L305 412L348.5 396L373 387L380.5 383L65 401.5L57.5 405C55.5 421.5 52.5 454.2 52.5 455C52.5 455.8 44.1667 487.667 40 503.5L25.5 558Z" fill="#FF4200" stroke="#FF4200"/>
<path d="M109.5 360.5C100.678 368.656 81.3802 387.451 80.9315 387.5L340.5 372.5L460 369L448 352.5L290.5 314L205.5 295.5L174 314L132.5 332L109.5 360.5Z" fill="#EB000F"/>
<path d="M80.9298 387.5C81.3298 387.5 100.667 368.667 109.5 360.5L132.5 332L174 314L205.5 295.5L290.5 314L448 352.5L460 369L340.5 372.5L80.9298 387.5Z" stroke="#EB000F"/>
<path d="M219.5 189.5L208.5 209.5L253.5 196L319.5 195L325 188.5L328 1.5L255 134.5L219.5 189.5Z" fill="#FD8300" stroke="#FD8300"/>
<path d="M208.5 209.5C189.667 241.833 153.4 302.7 153 303.5L341 194.5L253 196.5L208.5 209.5Z" fill="#F95B01" stroke="#F95B01"/>
<path d="M372.5 147C400.167 156 455.7 174 456.5 174L449.5 72L452.5 14C437.333 41.8333 406.9 97.7 406.5 98.5C406.1 99.3 383.667 131.167 372.5 147Z" fill="#A8000F" stroke="#A8000F"/>
<path d="M388.5 263C412 264.167 459.3 266.5 460.5 266.5C436.833 234 389.3 169.1 388.5 169.5C387.5 170 308 217.5 307 217.5C306 217.5 226 274 223.5 275.5C221.5 276.7 238.333 290.333 247 297L388.5 263Z" fill="#E10010" stroke="#E10010"/>
<path d="M603 376C651.667 383.833 749.4 399.5 751 399.5L766.5 363.5L669 327L616.5 308.5C607.5 300.667 588 286 588 286C588 286 516.5 224.5 481.5 193.5L429.5 172C429.5 172 390 166.5 389 166.5C388.2 166.5 427 232.5 446.5 265.5L494.5 278.5L538 307.5L603 376Z" fill="#FF4800" stroke="#FF4800"/>
<path d="M495.5 368.5L583 380L552 323L538.5 307.5L495.5 277.5L446 265L389.5 262.5L247 294L420.5 332L495.5 368.5Z" fill="#DD0011" stroke="#DD0011"/>
<path d="M492 312C490.725 310.725 543.5 315.5 545.5 315.5L574.5 376C546.167 356 494 314 492 312Z" fill="#810317" stroke="#810317"/>
<path d="M395.5 529L409 522L413.5 568L420.5 641L437 675.5L498 727.5L589.5 788.5L647 823.5L700.5 845L767 866L832 890L857.5 895L876.5 885L907 868L943.5 841L976 805L1001 773.5L1048.5 689L1087.5 596L1106.5 609L1079.5 675.5L1053 733.5L1013 796.5L966.5 850.5L904 898.5L861 922.5L801.5 911.5L664 861L565 812L519 777.5L478 746.5L437 712.5L405 675.5L393.5 644V596L395.5 529Z" fill="black" stroke="black"/>
<path d="M884.5 339.5L886 306L899 334.5L938 389L970 432.5L1008 478L1036.5 514.5L1066.5 546.5L1086 561L1099.5 581.5L1086 601L1023.5 533.5C1012.5 521.167 990.2 496.2 989 495C987.8 493.8 972.833 471.5 965.5 460.5L884.5 339.5Z" fill="black" stroke="black"/>
<path d="M540.5 493.5L405.5 552.5L407.5 524.5L409 522L452.5 499L514 479L585 460L659.5 451L731 449L713 472.5L626.5 482L540.5 493.5Z" fill="black" stroke="black"/>
<path d="M1078 260L1102.5 186.5L1095.5 225.5L1094 258L1097.5 307L1104.5 336.5V371L1102.5 423V498L1110.5 571.5L1087 577L1077 498V440L1079.5 389.5L1078 356.5L1077 303.5L1078 260Z" fill="black" stroke="black"/>
<path d="M1098.5 633L1079 569.5L1109.5 560.5L1124 630.5L1136 688L1142 760V848.5L1140.5 899C1146.67 894.333 1159.1 884.8 1159.5 884C1159.9 883.2 1187.33 855.667 1201 842L1238 799L1265 763.5L1281 743L1315.5 729.5L1294.5 766.5L1258.5 811.5C1249.5 821.833 1231 842.7 1229 843.5C1227 844.3 1192.83 882.167 1176 901L1135.5 941.5L1123.5 945.5L1111.5 941.5L1115.5 886.5L1118 819L1115.5 753L1109.5 685.5L1098.5 633Z" fill="black" stroke="black"/>
<path d="M1133.5 944L1138 938.5L1117 917L1095 944L1045.5 986L990 1032.5L923 1085L900.5 1112L903 1139H921L935.5 1114L969 1085L1009.5 1047L1049 1016.5L1113.5 963L1133.5 944Z" fill="black" stroke="black"/>
<path d="M1021.5 1174L1059 1134.5H957L932 1129.5L934 1112.5H917H827L776 1104.5L715.5 1090L654 1067.5L570 1028L517 1008.5L499.5 1013L587.5 1066L650.5 1112.5L704.5 1117.5L776 1129.5L866 1153.5L928 1156.5L964.5 1164L1021.5 1174Z" fill="black" stroke="black"/>
<path d="M545 1023.5L520.5 1016.5L499.5 994.5L579.5 981.5L628.5 971L715.5 951.5L761 934L808 920L834 912L861.5 922L836.5 935L787.5 955L713.5 979L628.5 1000.5L549.5 1015L545 1023.5Z" fill="black" stroke="black"/>
<path d="M494 1010.5C496.333 1011.5 501.1 1013.6 501.5 1014H524.5L511.5 996L475 968L440 943.5L401.5 916L360 885C350.5 879 331.4 866.9 331 866.5C330.6 866.1 320.167 861.667 315 859.5L348 898L379 926L412.5 952.5L444.5 973.5L479 999L494 1010.5Z" fill="black" stroke="black"/>
<path d="M331 859L355 883L325.5 863L323 884.5L344 921L379.5 976.5L408 1031.5L453 1115.5L493 1178.5L522 1233.5L545 1266.5L527 1267.5L505 1253L464.5 1183L424.5 1119L395.5 1070L366.5 1018.5L312.5 926.5L295 884.5L279 839L263.5 783.5L249.5 729.5L234 667.5L217.5 658.5L249.5 613.5L265.5 697.5L285 762.5L295 797.5L303.5 821L318.5 841.5L331 859Z" fill="black" stroke="black"/>
<path d="M231.5 706.5C235.667 699.833 244 686.3 244 685.5L253.5 640L250.5 565.5L238.5 599L216.5 653L207 706.5L182.5 797.5L152 902.5L121.5 999.5L136.5 1024.5L147.5 999.5L168 932L188 866L203.5 808L216.5 753L231.5 706.5Z" fill="black" stroke="black"/>
<path d="M278.5 569C270.167 594.167 253.3 644.7 252.5 645.5L247 619.5L250 567L257.5 548L280 504.5C291.167 487 313.7 451.9 314.5 451.5C315.5 451 295 459 294 459C293 459 310 433 309 433.5C308.2 433.9 349 403.667 369.5 388.5L462.5 371.5L503 377.5C485.5 381.333 450.2 389 449 389C447.8 389 425.167 395.333 414 398.5L367.5 420.5L337 453.5C325.5 472.833 302.3 511.6 301.5 512C300.7 512.4 285.833 550.167 278.5 569Z" fill="black" stroke="black"/>
<path d="M271.5 478C280.667 470.833 299.1 456.4 299.5 456L319 428.5C306.5 433.5 281.2 443.7 280 444.5C278.5 445.5 255.5 458.5 253.5 460.5C251.9 462.1 212.167 488.167 192.5 501C169.167 517.333 122.3 550 121.5 550C120.7 550 83.1667 578 64.5 592L8.5 637L1.5 674L39 645L85 610L139.5 570.5L180.5 541L227 509.5L271.5 478Z" fill="black" stroke="black"/>
<path d="M201 400C259 396 376.5 387.9 382.5 387.5L453.5 380.5L486 364.5H382.5L257.5 374.5L85.5 383.5L58 404.5L201 400Z" fill="black" stroke="black"/>
<path d="M762.5 423.5L795 368L764 362.5C759.833 365.667 751.3 372.5 750.5 374.5C749.5 377 744.5 391 743.5 392C742.5 393 723 390.5 720.5 391C718 391.5 644.5 378.5 640.5 378.5C636.5 378.5 568.5 372 567.5 372C566.5 372 520.5 364 518.5 364C516.9 364 484.167 375 468 380.5L567.5 394.5L655 406C676.5 410.5 719.7 419.6 720.5 420C721.3 420.4 748.833 422.5 762.5 423.5Z" fill="black" stroke="black"/>
<path d="M597 364C598 364.5 641.5 384 646.5 386.5L573 382L545.5 315.5C562.333 331.5 596.2 363.6 597 364Z" fill="black" stroke="black"/>
<path d="M425.5 351L463.5 376.5L541 374.5L480 343L442 330L354 312.5C321 305.5 254.2 291.4 251 291C247.8 290.6 224.333 289.167 213 288.5L238.5 312.5C260.5 317.167 305 326.6 307 327C309.5 327.5 357 337.5 360.5 339C363.3 340.2 405 347.5 425.5 351Z" fill="black" stroke="black"/>
<path d="M196 304L247 308.5L260 297.5L241 282.5L245 270L282.5 244.5L326 218.5L339 183L258 232.5L214 264L153.5 302.5L128.5 336.5L165 323L196 304Z" fill="black" stroke="black"/>
<path d="M318 104C321.167 70.1667 327.6 2.3 328 1.5L358 72L379 136.5L396 162.5L384.5 172.5L345.5 205C336.5 211 318.4 223 318 223C317.6 223 317.833 143.667 318 104Z" fill="black" stroke="black"/>
<path d="M400.5 169.5C390.667 172.833 370.7 179.7 369.5 180.5L377.5 148.5L415.5 156.5C426.768 159.648 449.24 166.026 449.498 166.493C449.411 165.812 446.811 134.059 445.5 118V59L452.5 10.5C458 37.6667 469 92.1 469 92.5C469 92.9 475.667 126.667 479 143.5L483.5 194.5C467.5 191 435.4 184 435 184C434.6 184 411.833 174.333 400.5 169.5Z" fill="black"/>
<path d="M369.5 180.5C370.7 179.7 390.667 172.833 400.5 169.5C411.833 174.333 434.6 184 435 184C435.4 184 467.5 191 483.5 194.5L479 143.5C475.667 126.667 469 92.9 469 92.5C469 92.1 458 37.6667 452.5 10.5L445.5 59V118C446.833 134.333 449.5 166.9 449.5 166.5C449.5 166.1 426.833 159.667 415.5 156.5L377.5 148.5L369.5 180.5Z" stroke="black"/>
<path d="M1733 524.2H1793.8L1684.6 645.8L1797.8 773H1736.2L1625 645.8L1733 524.2ZM1564.6 524.2H1617V773H1564.6V524.2ZM1845.14 524.2H1900.34V773H1845.14V524.2ZM2146.36 524.2H2195.56V773H2146.76L2023.96 579V773H1974.76V524.2H2025.16L2146.36 717.4V524.2ZM2472.94 555.8V741.4C2472.94 762.467 2462.41 773 2441.34 773H2294.94C2273.88 773 2263.34 762.467 2263.34 741.4V555.8C2263.34 534.733 2273.88 524.2 2294.94 524.2H2441.34C2462.41 524.2 2472.94 534.733 2472.94 555.8ZM2419.74 737V560.2C2419.74 554.867 2418.94 551.533 2417.34 550.2C2416.01 548.6 2412.68 547.8 2407.34 547.8H2329.34C2324.28 547.8 2320.94 548.6 2319.34 550.2C2317.74 551.533 2316.94 554.867 2316.94 560.2V737C2316.94 742.333 2317.74 745.8 2319.34 747.4C2320.94 748.733 2324.28 749.4 2329.34 749.4H2407.34C2412.68 749.4 2416.01 748.733 2417.34 747.4C2418.94 745.8 2419.74 742.333 2419.74 737ZM2653.35 524.2H2708.55V773H2653.35V524.2ZM2930.16 737V671.8C2930.16 666.733 2929.36 663.4 2927.76 661.8C2926.43 660.2 2923.09 659.4 2917.76 659.4H2806.56C2785.49 659.4 2774.96 648.867 2774.96 627.8V555.8C2774.96 534.733 2785.49 524.2 2806.56 524.2H2950.96C2972.03 524.2 2982.56 534.733 2982.56 555.8V598.6H2928.56V560.2C2928.56 554.867 2927.76 551.533 2926.16 550.2C2924.83 548.6 2921.49 547.8 2916.16 547.8H2841.36C2836.29 547.8 2832.96 548.6 2831.36 550.2C2829.76 551.533 2828.96 554.867 2828.96 560.2V623.4C2828.96 628.733 2829.76 632.2 2831.36 633.8C2832.96 635.133 2836.29 635.8 2841.36 635.8H2952.16C2973.23 635.8 2983.76 646.333 2983.76 667.4V741.4C2983.76 762.467 2973.23 773 2952.16 773H2807.76C2786.69 773 2776.16 762.467 2776.16 741.4V698.6H2829.76V737C2829.76 742.333 2830.56 745.8 2832.16 747.4C2833.76 748.733 2837.09 749.4 2842.16 749.4H2917.76C2923.09 749.4 2926.43 748.733 2927.76 747.4C2929.36 745.8 2930.16 742.333 2930.16 737ZM3215.81 524.2H3276.61L3167.41 645.8L3280.61 773H3219.01L3107.81 645.8L3215.81 524.2ZM3047.41 524.2H3099.81V773H3047.41V524.2ZM3378.36 547.8V660.2H3475.16C3480.22 660.2 3483.56 659.4 3485.16 657.8C3486.76 656.2 3487.56 652.867 3487.56 647.8V560.2C3487.56 554.867 3486.76 551.533 3485.16 550.2C3483.56 548.6 3480.22 547.8 3475.16 547.8H3378.36ZM3378.36 683.8V773H3324.76V524.2H3509.16C3530.22 524.2 3540.76 534.733 3540.76 555.8V652.2C3540.76 673.267 3530.22 683.8 3509.16 683.8H3487.96L3544.36 773H3488.76L3434.36 683.8H3378.36ZM3658.43 700.2H3762.03L3710.03 557.8L3658.43 700.2ZM3788.83 773L3770.83 723.8H3650.03L3632.03 773H3579.63L3675.23 524.2H3745.63L3841.63 773H3788.83Z" fill="black"/>
</svg>
